# xmcd
#
# Track frame offsets:
#	150
#	14299
#	29034
#	42234
#	56681
#	68802
#	85492
#	97021
#	110668
#	124899
#
# Disc length: 1828 seconds
#
# Revision: 1
# Processed by: cddbd v1.5.1PL0 Copyright (c) Steve Scherf et al.
# Submitted via: audiograbber 1.83.01
#
DISCID=8e07220a
DTITLE=Chris LeDoux - 30 Dollar Cowboy
DYEAR=1983
DGENRE=Country
TTITLE0=They Couldn't Understand My Cowboy Songs
TTITLE1=It Ain't The Years, It's The Miles
TTITLE2=The Greatest Prize
TTITLE3=Call Of The Wild
TTITLE4=Thirty Dollar Cowboy
TTITLE5=Montana Rodeo
TTITLE6=The Last Sunset
TTITLE7=A Cowboy's Got To Ride
TTITLE8=Ballad Of Will Rogers
TTITLE9=Take Me Back To Old Wyoming
EXTD=
EXTT0=
EXTT1=
EXTT2=
EXTT3=
EXTT4=
EXTT5=
EXTT6=
EXTT7=
EXTT8=
EXTT9=
PLAYORDER=
